<svg width="320" height="105" viewBox="0 0 320 105" fill="none" xmlns="http://www.w3.org/2000/svg">
<rect x="86.0488" y="83.606" width="12.2927" height="10.4507" fill="#C9C200"/>
<rect x="98.3418" y="83.606" width="12.2927" height="10.4507" fill="#C9C200"/>
<rect x="110.635" y="83.606" width="12.2927" height="10.4507" fill="#C9C200"/>
<rect x="122.928" y="83.606" width="12.2927" height="10.4507" fill="#C9C200"/>
<rect x="135.219" y="83.606" width="12.2927" height="10.4507" fill="#C9C200"/>
<rect x="147.512" y="83.606" width="12.2927" height="10.4507" fill="#C9C200"/>
<rect x="159.805" y="83.606" width="12.2927" height="10.4507" fill="#C9C200"/>
<rect x="172.098" y="83.606" width="12.2927" height="10.4507" fill="#C9C200"/>
<rect x="184.391" y="83.606" width="12.2927" height="10.4507" fill="#C9C200"/>
<rect x="196.682" y="83.606" width="12.2927" height="10.4507" fill="#C9C200"/>
<rect x="208.975" y="83.606" width="12.2927" height="10.4507" fill="#C9C200"/>
<rect x="221.268" y="83.606" width="12.2927" height="10.4507" fill="#C9C200"/>
<rect x="233.561" y="83.606" width="12.2927" height="10.4507" fill="#C9C200"/>
<rect x="245.854" y="83.606" width="12.2927" height="10.4507" fill="#C9C200"/>
<rect x="258.146" y="83.606" width="12.2927" height="10.4507" fill="#C9C200"/>
<rect x="270.438" y="83.606" width="12.2927" height="10.4507" fill="#C9C200"/>
<rect x="282.73" y="83.606" width="12.2927" height="10.4507" fill="#C9C200"/>
<rect x="295.023" y="73.1553" width="12.2927" height="10.4507" fill="#C9C200"/>
<rect x="307.316" y="62.7046" width="12.2927" height="10.4507" fill="#C9C200"/>
<rect x="307.316" y="52.2539" width="12.2927" height="10.4507" fill="#C9C200"/>
<rect x="307.316" y="41.8032" width="12.2927" height="10.4507" fill="#C9C200"/>
<rect x="307.316" y="31.3525" width="12.2927" height="10.4507" fill="#C9C200"/>
<rect x="307.316" y="20.9019" width="12.2927" height="10.4507" fill="#C9C200"/>
<rect x="295.023" y="10.4512" width="12.2927" height="10.4507" fill="#C9C200"/>
<rect x="12.293" y="20.9019" width="12.2927" height="10.4507" fill="#C9C200"/>
<path d="M12.293 31.3525H24.5856V41.8032H12.293V31.3525Z" fill="#C9C200"/>
<path d="M12.293 41.8032H24.5856V52.2539H12.293V41.8032Z" fill="#C9C200"/>
<path d="M12.293 52.2539H24.5856V62.7045H12.293V52.2539Z" fill="#C9C200"/>
<path d="M12.293 62.7045H24.5856V73.1552H12.293V62.7045Z" fill="#C9C200"/>
<rect x="24.584" y="10.4512" width="12.2927" height="10.4507" fill="#C9C200"/>
<path d="M36.8789 0.000976562H49.1716V10.4516H36.8789V0.000976562Z" fill="#C9C200"/>
<rect x="49.1719" y="0.000976562" width="12.2927" height="10.4507" fill="#C9C200"/>
<rect x="49.1719" y="83.606" width="12.2927" height="10.4507" fill="#C9C200"/>
<rect x="61.4629" y="83.606" width="12.2927" height="10.4507" fill="#C9C200"/>
<rect x="36.8789" y="83.606" width="12.2927" height="10.4507" fill="#C9C200"/>
<rect x="24.584" y="73.1553" width="12.2927" height="10.4507" fill="#C9C200"/>
<rect x="73.7559" y="83.606" width="12.2927" height="10.4507" fill="#C9C200"/>
<rect x="86.0488" y="0.000976562" width="12.2927" height="10.4507" fill="#C9C200"/>
<rect x="98.3418" y="0.000976562" width="12.2927" height="10.4507" fill="#C9C200"/>
<rect x="110.635" y="0.000976562" width="12.2927" height="10.4507" fill="#C9C200"/>
<rect x="122.928" y="0.000976562" width="12.2927" height="10.4507" fill="#C9C200"/>
<rect x="135.219" y="0.000976562" width="12.2927" height="10.4507" fill="#C9C200"/>
<rect x="147.512" y="0.000976562" width="12.2927" height="10.4507" fill="#C9C200"/>
<rect x="159.805" y="0.000976562" width="12.2927" height="10.4507" fill="#C9C200"/>
<rect x="172.098" y="0.000976562" width="12.2927" height="10.4507" fill="#C9C200"/>
<rect x="184.391" y="0.000976562" width="12.2927" height="10.4507" fill="#C9C200"/>
<rect x="196.682" y="0.000976562" width="12.2927" height="10.4507" fill="#C9C200"/>
<rect x="208.975" y="0.000976562" width="12.2927" height="10.4507" fill="#C9C200"/>
<rect x="221.268" y="0.000976562" width="12.2927" height="10.4507" fill="#C9C200"/>
<rect x="233.561" y="0.000976562" width="12.2927" height="10.4507" fill="#C9C200"/>
<rect x="245.854" y="0.000976562" width="12.2927" height="10.4507" fill="#C9C200"/>
<rect x="258.146" y="0.000976562" width="12.2927" height="10.4507" fill="#C9C200"/>
<rect x="270.438" y="0.000976562" width="12.2927" height="10.4507" fill="#C9C200"/>
<rect x="282.73" y="0.000976562" width="12.2927" height="10.4507" fill="#C9C200"/>
<rect x="73.7559" y="0.000976562" width="12.2927" height="10.4507" fill="#C9C200"/>
<rect x="61.4629" y="0.000976562" width="12.2927" height="10.4507" fill="#C9C200"/>
<rect x="61.4629" y="31.3525" width="12.2927" height="10.4507" fill="#F7F154"/>
<rect x="73.7559" y="31.3525" width="12.2927" height="10.4507" fill="#F7F154"/>
<rect x="73.7559" y="20.9019" width="12.2927" height="10.4507" fill="#F7F154"/>
<rect x="61.4629" y="20.9019" width="12.2927" height="10.4507" fill="#F7F154"/>
<rect x="159.805" y="31.3525" width="12.2927" height="10.4507" fill="#F7F154"/>
<rect x="159.805" y="41.8032" width="12.2927" height="10.4507" fill="#F7F154"/>
<rect x="159.805" y="62.7046" width="12.2927" height="10.4507" fill="#F7F154"/>
<rect x="36.8789" y="10.4512" width="12.2927" height="10.4507" fill="#F7F154"/>
<rect x="36.8789" y="73.1553" width="12.2927" height="10.4507" fill="#F7F154"/>
<rect x="36.8789" y="62.7046" width="12.2927" height="10.4507" fill="#F7F154"/>
<rect x="36.8789" y="52.2539" width="12.2927" height="10.4507" fill="#F7F154"/>
<rect x="49.1719" y="52.2539" width="12.2927" height="10.4507" fill="#F7F154"/>
<rect x="36.8789" y="41.8032" width="12.2927" height="10.4507" fill="#F7F154"/>
<rect x="36.8789" y="31.3525" width="12.2927" height="10.4507" fill="#F7F154"/>
<rect x="36.8789" y="20.9019" width="12.2927" height="10.4507" fill="#F7F154"/>
<rect x="24.584" y="62.7046" width="12.2927" height="10.4507" fill="#F7F154"/>
<rect x="24.584" y="52.2539" width="12.2927" height="10.4507" fill="#F7F154"/>
<rect x="24.584" y="41.8032" width="12.2927" height="10.4507" fill="#F7F154"/>
<rect x="24.584" y="31.3525" width="12.2927" height="10.4507" fill="#F7F154"/>
<rect x="49.1719" y="20.9019" width="12.2927" height="10.4507" fill="#F7F154"/>
<rect x="49.1719" y="31.3525" width="12.2927" height="10.4507" fill="#F7F154"/>
<rect x="49.1719" y="41.8032" width="12.2927" height="10.4507" fill="#F7F154"/>
<rect x="61.4629" y="41.8032" width="12.2927" height="10.4507" fill="#F7F154"/>
<rect x="73.7559" y="41.8032" width="12.2927" height="10.4507" fill="#F7F154"/>
<rect x="73.7559" y="52.2539" width="12.2927" height="10.4507" fill="#F7F154"/>
<rect x="73.7559" y="62.7046" width="12.2927" height="10.4507" fill="#F7F154"/>
<rect x="61.4629" y="62.7046" width="12.2927" height="10.4507" fill="#F7F154"/>
<rect x="49.1719" y="62.7046" width="12.2927" height="10.4507" fill="#F7F154"/>
<rect x="24.584" y="20.9019" width="12.2927" height="10.4507" fill="#F7F154"/>
<rect x="282.73" y="62.7046" width="12.2927" height="10.4507" fill="#F7F154"/>
<rect x="282.73" y="52.2539" width="12.2927" height="10.4507" fill="#F7F154"/>
<rect x="282.73" y="41.8032" width="12.2927" height="10.4507" fill="#F7F154"/>
<rect x="282.73" y="31.3525" width="12.2927" height="10.4507" fill="#F7F154"/>
<rect x="270.438" y="62.7046" width="12.2927" height="10.4507" fill="#F7F154"/>
<rect x="270.438" y="52.2539" width="12.2927" height="10.4507" fill="#F7F154"/>
<rect x="258.146" y="41.8032" width="12.2927" height="10.4507" fill="#F7F154"/>
<rect x="258.146" y="52.2539" width="12.2927" height="10.4507" fill="#F7F154"/>
<rect x="270.438" y="41.8032" width="12.2927" height="10.4507" fill="#F7F154"/>
<rect x="270.438" y="20.9019" width="12.2927" height="10.4507" fill="#F7F154"/>
<rect x="270.438" y="31.3525" width="12.2927" height="10.4507" fill="#F7F154"/>
<rect x="245.854" y="62.7046" width="12.2927" height="10.4507" fill="#F7F154"/>
<rect x="245.854" y="52.2539" width="12.2927" height="10.4507" fill="#F7F154"/>
<rect x="258.146" y="62.7046" width="12.2927" height="10.4507" fill="#F7F154"/>
<rect x="245.854" y="41.8032" width="12.2927" height="10.4507" fill="#F7F154"/>
<rect x="245.854" y="31.3525" width="12.2927" height="10.4507" fill="#F7F154"/>
<rect x="258.146" y="20.9019" width="12.2927" height="10.4507" fill="#F7F154"/>
<rect x="258.146" y="31.3525" width="12.2927" height="10.4507" fill="#F7F154"/>
<rect x="122.928" y="62.7046" width="12.2927" height="10.4507" fill="#F7F154"/>
<rect x="110.635" y="62.7046" width="12.2927" height="10.4507" fill="#F7F154"/>
<rect x="122.928" y="52.2539" width="12.2927" height="10.4507" fill="#F7F154"/>
<rect x="110.635" y="52.2539" width="12.2927" height="10.4507" fill="#F7F154"/>
<rect x="122.928" y="41.8032" width="12.2927" height="10.4507" fill="#F7F154"/>
<rect x="110.635" y="41.8032" width="12.2927" height="10.4507" fill="#F7F154"/>
<rect x="122.928" y="31.3525" width="12.2927" height="10.4507" fill="#F7F154"/>
<rect x="110.635" y="31.3525" width="12.2927" height="10.4507" fill="#F7F154"/>
<rect x="122.928" y="20.9019" width="12.2927" height="10.4507" fill="#F7F154"/>
<rect x="98.3418" y="62.7046" width="12.2927" height="10.4507" fill="#F7F154"/>
<rect x="98.3418" y="52.2539" width="12.2927" height="10.4507" fill="#F7F154"/>
<rect x="98.3418" y="41.8032" width="12.2927" height="10.4507" fill="#F7F154"/>
<rect x="98.3418" y="31.3525" width="12.2927" height="10.4507" fill="#F7F154"/>
<rect x="110.635" y="20.9019" width="12.2927" height="10.4507" fill="#F7F154"/>
<rect x="98.3418" y="20.9019" width="12.2927" height="10.4507" fill="#F7F154"/>
<rect x="282.73" y="20.9019" width="12.2927" height="10.4507" fill="#F7F154"/>
<rect x="86.0488" y="62.7046" width="12.2927" height="10.4507" fill="#F7F154"/>
<rect x="86.0488" y="52.2539" width="12.2927" height="10.4507" fill="#F7F154"/>
<rect x="86.0488" y="41.8032" width="12.2927" height="10.4507" fill="#F7F154"/>
<rect x="86.0488" y="31.3525" width="12.2927" height="10.4507" fill="#F7F154"/>
<rect x="86.0488" y="20.9019" width="12.2927" height="10.4507" fill="#F7F154"/>
<rect x="135.219" y="62.7046" width="12.2927" height="10.4507" fill="#F7F154"/>
<rect x="147.512" y="62.7046" width="12.2927" height="10.4507" fill="#F7F154"/>
<rect x="135.219" y="52.2539" width="12.2927" height="10.4507" fill="#F7F154"/>
<rect x="147.512" y="52.2539" width="12.2927" height="10.4507" fill="#F7F154"/>
<rect x="135.219" y="41.8032" width="12.2927" height="10.4507" fill="#F7F154"/>
<rect x="147.512" y="41.8032" width="12.2927" height="10.4507" fill="#F7F154"/>
<rect x="135.219" y="31.3525" width="12.2927" height="10.4507" fill="#F7F154"/>
<rect x="147.512" y="31.3525" width="12.2927" height="10.4507" fill="#F7F154"/>
<rect x="135.219" y="20.9019" width="12.2927" height="10.4507" fill="#F7F154"/>
<rect x="159.805" y="20.9019" width="12.2927" height="10.4507" fill="#F7F154"/>
<rect x="172.098" y="20.9019" width="12.2927" height="10.4507" fill="#F7F154"/>
<rect x="172.098" y="31.3525" width="12.2927" height="10.4507" fill="#F7F154"/>
<rect x="172.098" y="41.8032" width="12.2927" height="10.4507" fill="#F7F154"/>
<rect x="172.098" y="52.2539" width="12.2927" height="10.4507" fill="#F7F154"/>
<rect x="221.268" y="62.7046" width="12.2927" height="10.4507" fill="#F7F154"/>
<rect x="172.098" y="62.7046" width="12.2927" height="10.4507" fill="#F7F154"/>
<rect x="159.805" y="52.2539" width="12.2927" height="10.4507" fill="#F7F154"/>
<rect x="147.512" y="20.9019" width="12.2927" height="10.4507" fill="#F7F154"/>
<rect x="184.391" y="62.7046" width="12.2927" height="10.4507" fill="#F7F154"/>
<rect x="184.391" y="52.2539" width="12.2927" height="10.4507" fill="#F7F154"/>
<rect x="184.391" y="41.8032" width="12.2927" height="10.4507" fill="#F7F154"/>
<rect x="184.391" y="31.3525" width="12.2927" height="10.4507" fill="#F7F154"/>
<rect x="196.682" y="31.3525" width="12.2927" height="10.4507" fill="#F7F154"/>
<rect x="196.682" y="41.8032" width="12.2927" height="10.4507" fill="#F7F154"/>
<rect x="196.682" y="52.2539" width="12.2927" height="10.4507" fill="#F7F154"/>
<rect x="196.682" y="62.7046" width="12.2927" height="10.4507" fill="#F7F154"/>
<rect x="196.682" y="20.9019" width="12.2927" height="10.4507" fill="#F7F154"/>
<rect x="208.975" y="20.9019" width="12.2927" height="10.4507" fill="#F7F154"/>
<rect x="221.268" y="20.9019" width="12.2927" height="10.4507" fill="#F7F154"/>
<rect x="221.268" y="31.3525" width="12.2927" height="10.4507" fill="#F7F154"/>
<rect x="221.268" y="52.2539" width="12.2927" height="10.4507" fill="#F7F154"/>
<rect x="245.854" y="20.9019" width="12.2927" height="10.4507" fill="#F7F154"/>
<rect x="208.975" y="41.8032" width="12.2927" height="10.4507" fill="#F7F154"/>
<rect x="184.391" y="20.9019" width="12.2927" height="10.4507" fill="#F7F154"/>
<rect x="208.975" y="31.3525" width="12.2927" height="10.4507" fill="#F7F154"/>
<rect x="208.975" y="52.2539" width="12.2927" height="10.4507" fill="#F7F154"/>
<rect x="208.975" y="62.7046" width="12.2927" height="10.4507" fill="#F7F154"/>
<rect x="233.561" y="62.7046" width="12.2927" height="10.4507" fill="#F7F154"/>
<rect x="221.268" y="41.8032" width="12.2927" height="10.4507" fill="#F7F154"/>
<rect x="233.561" y="41.8032" width="12.2927" height="10.4507" fill="#F7F154"/>
<rect x="233.561" y="52.2539" width="12.2927" height="10.4507" fill="#F7F154"/>
<rect x="233.561" y="31.3525" width="12.2927" height="10.4507" fill="#F7F154"/>
<rect x="233.561" y="20.9019" width="12.2927" height="10.4507" fill="#F7F154"/>
<rect x="295.023" y="62.7046" width="12.2927" height="10.4507" fill="#F7F154"/>
<rect x="295.023" y="52.2539" width="12.2927" height="10.4507" fill="#F7F154"/>
<rect x="295.023" y="41.8032" width="12.2927" height="10.4507" fill="#F7F154"/>
<rect x="295.023" y="31.3525" width="12.2927" height="10.4507" fill="#F7F154"/>
<rect x="295.023" y="20.9019" width="12.2927" height="10.4507" fill="#F7F154"/>
<rect x="61.4629" y="52.2539" width="12.2927" height="10.4507" fill="#F7F154"/>
<rect x="49.1719" y="10.4512" width="12.2927" height="10.4507" fill="#F7F154"/>
<rect x="61.4629" y="10.4512" width="12.2927" height="10.4507" fill="#F7F154"/>
<rect x="73.7559" y="10.4512" width="12.2927" height="10.4507" fill="#F7F154"/>
<rect x="86.0488" y="10.4512" width="12.2927" height="10.4507" fill="#F7F154"/>
<rect x="98.3418" y="10.4512" width="12.2927" height="10.4507" fill="#F7F154"/>
<rect x="110.635" y="10.4512" width="12.2927" height="10.4507" fill="#F7F154"/>
<rect x="122.928" y="10.4512" width="12.2927" height="10.4507" fill="#F7F154"/>
<rect x="135.219" y="10.4512" width="12.2927" height="10.4507" fill="#F7F154"/>
<rect x="147.512" y="10.4512" width="12.2927" height="10.4507" fill="#F7F154"/>
<rect x="159.805" y="10.4512" width="12.2927" height="10.4507" fill="#F7F154"/>
<rect x="172.098" y="10.4512" width="12.2927" height="10.4507" fill="#F7F154"/>
<rect x="172.098" y="10.4512" width="12.2927" height="10.4507" fill="#F7F154"/>
<rect x="184.391" y="10.4512" width="12.2927" height="10.4507" fill="#F7F154"/>
<rect x="196.682" y="10.4512" width="12.2927" height="10.4507" fill="#F7F154"/>
<rect x="208.975" y="10.4512" width="12.2927" height="10.4507" fill="#F7F154"/>
<rect x="221.268" y="10.4512" width="12.2927" height="10.4507" fill="#F7F154"/>
<rect x="233.561" y="10.4512" width="12.2927" height="10.4507" fill="#F7F154"/>
<rect x="245.854" y="10.4512" width="12.2927" height="10.4507" fill="#F7F154"/>
<rect x="258.146" y="10.4512" width="12.2927" height="10.4507" fill="#F7F154"/>
<rect x="270.438" y="10.4512" width="12.2927" height="10.4507" fill="#F7F154"/>
<rect x="282.73" y="10.4512" width="12.2927" height="10.4507" fill="#F7F154"/>
<rect x="49.1719" y="73.1553" width="12.2927" height="10.4507" fill="#F7F154"/>
<rect x="61.4629" y="73.1553" width="12.2927" height="10.4507" fill="#F7F154"/>
<rect x="73.7559" y="73.1553" width="12.2927" height="10.4507" fill="#F7F154"/>
<rect x="86.0488" y="73.1553" width="12.2927" height="10.4507" fill="#F7F154"/>
<rect x="98.3418" y="73.1553" width="12.2927" height="10.4507" fill="#F7F154"/>
<rect x="110.635" y="73.1553" width="12.2927" height="10.4507" fill="#F7F154"/>
<rect x="122.928" y="73.1553" width="12.2927" height="10.4507" fill="#F7F154"/>
<rect x="135.219" y="73.1553" width="12.2927" height="10.4507" fill="#F7F154"/>
<rect x="147.512" y="73.1553" width="12.2927" height="10.4507" fill="#F7F154"/>
<rect x="159.805" y="73.1553" width="12.2927" height="10.4507" fill="#F7F154"/>
<rect x="172.098" y="73.1553" width="12.2927" height="10.4507" fill="#F7F154"/>
<rect x="172.098" y="73.1553" width="12.2927" height="10.4507" fill="#F7F154"/>
<rect x="184.391" y="73.1553" width="12.2927" height="10.4507" fill="#F7F154"/>
<rect x="196.682" y="73.1553" width="12.2927" height="10.4507" fill="#F7F154"/>
<rect x="208.975" y="73.1553" width="12.2927" height="10.4507" fill="#F7F154"/>
<rect x="221.268" y="73.1553" width="12.2927" height="10.4507" fill="#F7F154"/>
<rect x="233.561" y="73.1553" width="12.2927" height="10.4507" fill="#F7F154"/>
<rect x="245.854" y="73.1553" width="12.2927" height="10.4507" fill="#F7F154"/>
<rect x="258.146" y="73.1553" width="12.2927" height="10.4507" fill="#F7F154"/>
<rect x="270.438" y="73.1553" width="12.2927" height="10.4507" fill="#F7F154"/>
<rect x="282.73" y="73.1553" width="12.2927" height="10.4507" fill="#F7F154"/>
<rect x="12.293" y="11.1479" width="12.2927" height="10.4507" fill="black"/>
<rect y="21.5986" width="12.2927" height="10.4507" fill="black"/>
<rect y="32.0493" width="12.2927" height="10.4507" fill="black"/>
<rect y="42.5" width="12.2927" height="10.4507" fill="black"/>
<rect y="52.9507" width="12.2927" height="10.4507" fill="black"/>
<rect y="62.7046" width="12.2927" height="10.4507" fill="black"/>
<rect x="12.293" y="73.1553" width="12.2927" height="10.4507" fill="black"/>
<rect x="24.584" y="83.606" width="12.2927" height="10.4507" fill="black"/>
<rect x="36.8789" y="94.0566" width="12.2927" height="10.4507" fill="black"/>
<rect x="24.584" y="94.0566" width="12.2927" height="10.4507" fill="black"/>
<rect x="12.293" y="83.606" width="12.2927" height="10.4507" fill="black"/>
<rect y="73.1553" width="12.2927" height="10.4507" fill="black"/>
<rect x="49.1719" y="94.0566" width="12.2927" height="10.4507" fill="black"/>
<rect x="61.4629" y="94.0566" width="12.2927" height="10.4507" fill="black"/>
<rect x="73.7559" y="94.0566" width="12.2927" height="10.4507" fill="black"/>
<rect x="86.0488" y="94.0566" width="12.2927" height="10.4507" fill="black"/>
<rect x="98.3418" y="94.0566" width="12.2927" height="10.4507" fill="black"/>
<rect x="110.635" y="94.0566" width="12.2927" height="10.4507" fill="black"/>
<rect x="122.928" y="94.0566" width="12.2927" height="10.4507" fill="black"/>
<rect x="135.219" y="94.0566" width="12.2927" height="10.4507" fill="black"/>
<rect x="147.512" y="94.0566" width="12.2927" height="10.4507" fill="black"/>
<rect x="159.805" y="94.0566" width="12.2927" height="10.4507" fill="black"/>
<rect x="172.098" y="94.0566" width="12.2927" height="10.4507" fill="black"/>
<rect x="184.391" y="94.0566" width="12.2927" height="10.4507" fill="black"/>
<rect x="196.682" y="94.0566" width="12.2927" height="10.4507" fill="black"/>
<rect x="208.975" y="94.0566" width="12.2927" height="10.4507" fill="black"/>
<rect x="221.268" y="94.0566" width="12.2927" height="10.4507" fill="black"/>
<rect x="233.561" y="94.0566" width="12.2927" height="10.4507" fill="black"/>
<rect x="245.854" y="94.0566" width="12.2927" height="10.4507" fill="black"/>
<rect x="258.146" y="94.0566" width="12.2927" height="10.4507" fill="black"/>
<rect x="270.438" y="94.0566" width="12.2927" height="10.4507" fill="black"/>
<rect x="282.73" y="94.0566" width="12.2927" height="10.4507" fill="black"/>
<rect x="295.023" y="83.606" width="12.2927" height="10.4507" fill="black"/>
<rect x="307.316" y="73.1553" width="12.2927" height="10.4507" fill="black"/>
<rect x="24.584" y="0.697266" width="12.2927" height="10.4507" fill="black"/>
<path d="M68.2388 44.8932H69.9938C71.9378 44.8932 72.9098 44.0472 72.9098 42.3552C72.9098 40.6632 71.9378 39.8172 69.9938 39.8172H68.2388V44.8932ZM68.2388 55.9092H62.9468V35.5512H71.3708C73.6568 35.5512 75.4028 36.1452 76.6088 37.3332C77.8328 38.5212 78.4448 40.1952 78.4448 42.3552C78.4448 44.5152 77.8328 46.1892 76.6088 47.3772C75.4028 48.5652 73.6568 49.1592 71.3708 49.1592H68.2388V55.9092ZM86.6726 45.7302C86.6726 46.5402 86.8256 47.2872 87.1316 47.9712C87.4376 48.6552 87.8516 49.2492 88.3736 49.7532C88.8956 50.2572 89.4986 50.6532 90.1826 50.9412C90.8846 51.2112 91.6226 51.3462 92.3966 51.3462C93.1706 51.3462 93.8996 51.2112 94.5836 50.9412C95.2856 50.6532 95.8976 50.2572 96.4196 49.7532C96.9596 49.2492 97.3826 48.6552 97.6886 47.9712C97.9946 47.2872 98.1476 46.5402 98.1476 45.7302C98.1476 44.9202 97.9946 44.1732 97.6886 43.4892C97.3826 42.8052 96.9596 42.2112 96.4196 41.7072C95.8976 41.2032 95.2856 40.8162 94.5836 40.5462C93.8996 40.2582 93.1706 40.1142 92.3966 40.1142C91.6226 40.1142 90.8846 40.2582 90.1826 40.5462C89.4986 40.8162 88.8956 41.2032 88.3736 41.7072C87.8516 42.2112 87.4376 42.8052 87.1316 43.4892C86.8256 44.1732 86.6726 44.9202 86.6726 45.7302ZM81.1376 45.7302C81.1376 44.2182 81.4166 42.8142 81.9746 41.5182C82.5326 40.2042 83.3066 39.0612 84.2966 38.0892C85.2866 37.1172 86.4656 36.3612 87.8336 35.8212C89.2196 35.2632 90.7406 34.9842 92.3966 34.9842C94.0346 34.9842 95.5466 35.2632 96.9326 35.8212C98.3186 36.3612 99.5066 37.1172 100.497 38.0892C101.505 39.0612 102.288 40.2042 102.846 41.5182C103.404 42.8142 103.683 44.2182 103.683 45.7302C103.683 47.2422 103.404 48.6552 102.846 49.9692C102.288 51.2652 101.505 52.3992 100.497 53.3712C99.5066 54.3432 98.3186 55.1082 96.9326 55.6662C95.5466 56.2062 94.0346 56.4762 92.3966 56.4762C90.7406 56.4762 89.2196 56.2062 87.8336 55.6662C86.4656 55.1082 85.2866 54.3432 84.2966 53.3712C83.3066 52.3992 82.5326 51.2652 81.9746 49.9692C81.4166 48.6552 81.1376 47.2422 81.1376 45.7302ZM113.127 51.8052H114.288C115.62 51.8052 116.574 51.6342 117.15 51.2922C117.726 50.9502 118.014 50.4012 118.014 49.6452C118.014 48.8892 117.726 48.3402 117.15 47.9982C116.574 47.6562 115.62 47.4852 114.288 47.4852H113.127V51.8052ZM113.127 43.5432H114.099C115.755 43.5432 116.583 42.8862 116.583 41.5722C116.583 40.2582 115.755 39.6012 114.099 39.6012H113.127V43.5432ZM107.835 35.5512H115.719C117.591 35.5512 119.013 36.0012 119.985 36.9012C120.957 37.8012 121.443 39.0972 121.443 40.7892C121.443 41.8152 121.254 42.6702 120.876 43.3542C120.516 44.0202 119.958 44.5872 119.202 45.0552C119.958 45.1992 120.597 45.4242 121.119 45.7302C121.659 46.0182 122.091 46.3782 122.415 46.8102C122.757 47.2422 123 47.7282 123.144 48.2682C123.288 48.8082 123.36 49.3842 123.36 49.9962C123.36 50.9502 123.189 51.7962 122.847 52.5342C122.523 53.2722 122.055 53.8932 121.443 54.3972C120.849 54.9012 120.12 55.2792 119.256 55.5312C118.392 55.7832 117.42 55.9092 116.34 55.9092H107.835V35.5512ZM132.632 35.5512V55.9092H127.34V35.5512H132.632ZM149.278 40.0332H142.987V43.4352H148.927V47.9172H142.987V51.4272H149.278V55.9092H137.695V35.5512H149.278V40.0332ZM159.195 44.6502H160.194C161.238 44.6502 162.039 44.4342 162.597 44.0022C163.155 43.5702 163.434 42.9492 163.434 42.1392C163.434 41.3292 163.155 40.7082 162.597 40.2762C162.039 39.8442 161.238 39.6282 160.194 39.6282H159.195V44.6502ZM170.832 55.9092H164.244L159.195 48.0792V55.9092H153.903V35.5512H162.138C163.272 35.5512 164.262 35.7222 165.108 36.0642C165.954 36.3882 166.647 36.8382 167.187 37.4142C167.745 37.9902 168.159 38.6562 168.429 39.4122C168.717 40.1682 168.861 40.9782 168.861 41.8422C168.861 43.3902 168.483 44.6502 167.727 45.6222C166.989 46.5762 165.891 47.2242 164.433 47.5662L170.832 55.9092ZM181.011 51.4272H189.543V55.9092H172.128L181.767 40.0332H173.748V35.5512H190.596L181.011 51.4272ZM209.218 44.8932H210.973C212.917 44.8932 213.889 44.0472 213.889 42.3552C213.889 40.6632 212.917 39.8172 210.973 39.8172H209.218V44.8932ZM209.218 55.9092H203.926V35.5512H212.35C214.636 35.5512 216.382 36.1452 217.588 37.3332C218.812 38.5212 219.424 40.1952 219.424 42.3552C219.424 44.5152 218.812 46.1892 217.588 47.3772C216.382 48.5652 214.636 49.1592 212.35 49.1592H209.218V55.9092ZM223.035 55.9092V35.5512H228.327L238.101 47.9982V35.5512H243.366V55.9092H238.101L228.327 43.4622V55.9092H223.035ZM258.723 44.5152H269.226C269.226 45.5952 269.181 46.5762 269.091 47.4582C269.001 48.3402 268.821 49.1592 268.551 49.9152C268.173 50.9772 267.66 51.9222 267.012 52.7502C266.364 53.5602 265.599 54.2442 264.717 54.8022C263.853 55.3422 262.899 55.7562 261.855 56.0442C260.811 56.3322 259.713 56.4762 258.561 56.4762C256.977 56.4762 255.528 56.2152 254.214 55.6932C252.918 55.1712 251.802 54.4422 250.866 53.5062C249.93 52.5522 249.201 51.4182 248.679 50.1042C248.157 48.7722 247.896 47.3052 247.896 45.7032C247.896 44.1192 248.148 42.6702 248.652 41.3562C249.174 40.0242 249.903 38.8902 250.839 37.9542C251.793 37.0182 252.936 36.2892 254.268 35.7672C255.6 35.2452 257.085 34.9842 258.723 34.9842C260.847 34.9842 262.71 35.4432 264.312 36.3612C265.914 37.2792 267.183 38.7012 268.119 40.6272L263.097 42.7062C262.629 41.5902 262.017 40.7892 261.261 40.3032C260.523 39.8172 259.677 39.5742 258.723 39.5742C257.931 39.5742 257.211 39.7272 256.563 40.0332C255.915 40.3212 255.357 40.7442 254.889 41.3022C254.439 41.8422 254.079 42.4992 253.809 43.2732C253.557 44.0472 253.431 44.9112 253.431 45.8652C253.431 46.7292 253.539 47.5302 253.755 48.2682C253.989 49.0062 254.331 49.6452 254.781 50.1852C255.231 50.7252 255.789 51.1482 256.455 51.4542C257.121 51.7422 257.895 51.8862 258.777 51.8862C259.299 51.8862 259.803 51.8322 260.289 51.7242C260.775 51.5982 261.207 51.4092 261.585 51.1572C261.981 50.8872 262.305 50.5452 262.557 50.1312C262.809 49.7172 262.98 49.2132 263.07 48.6192H258.723V44.5152Z" fill="black"/>
</svg>
