<svg width="624" height="118" viewBox="0 0 624 118" fill="none" xmlns="http://www.w3.org/2000/svg">
<path d="M548.103 117.244C547.088 117.244 546.113 116.961 545.422 116.454C544.65 115.906 543.918 115.359 543.207 114.811C539.042 111.649 535.751 109.155 525.227 109.155C512.712 108.973 476.365 109.155 476 109.155L472.668 109.175V95.7742H479.311V102.525C488.657 102.484 515.008 102.383 525.288 102.546C537.986 102.546 542.7 106.093 547.23 109.54C547.474 109.722 547.718 109.905 547.961 110.108C552.573 106.053 556.636 102.546 570.939 102.546H616.875V95.4092H623.519V109.175H570.939C559.054 109.175 556.373 111.547 552.289 115.135C551.862 115.5 551.435 115.885 550.968 116.271C550.156 116.94 549.119 117.244 548.103 117.244Z" fill="white"/>
<path d="M548.104 117.345C547.088 117.345 546.072 117.04 545.361 116.533C544.609 115.986 543.878 115.439 543.126 114.892C538.981 111.749 535.69 109.255 525.207 109.255C512.692 109.073 476.326 109.255 475.98 109.255L472.547 109.276V95.6722H479.394V102.423C487.622 102.382 514.704 102.281 525.268 102.444C538.007 102.444 542.72 106.011 547.271 109.458C547.495 109.62 547.718 109.803 547.942 109.965C552.533 105.91 556.556 102.444 570.92 102.444H616.754V95.3071H623.601V109.275H570.92C559.075 109.275 556.393 111.648 552.33 115.216C551.903 115.581 551.477 115.966 551.009 116.351C550.278 117 549.241 117.345 548.104 117.345ZM506.84 108.971C514.134 108.971 521.022 108.992 525.207 109.052C535.771 109.052 539.063 111.546 543.248 114.729C543.979 115.297 544.71 115.844 545.462 116.371C546.153 116.858 547.108 117.142 548.083 117.142C549.159 117.142 550.155 116.797 550.866 116.189C551.313 115.803 551.76 115.418 552.166 115.053C556.27 111.444 558.972 109.052 570.898 109.052H623.376V95.4894H616.936V102.626H570.899C556.555 102.626 552.594 106.113 548.002 110.147L547.941 110.208L547.88 110.167C547.637 109.985 547.393 109.802 547.149 109.599C542.619 106.173 537.946 102.625 525.268 102.625C514.642 102.463 487.398 102.565 479.291 102.605H479.19V95.8541H472.75V109.052L475.98 109.031C476.224 109.052 492.375 108.971 506.84 108.971ZM549.241 111.141L549.282 111.039L549.343 110.958L549.282 111.039L549.343 110.958L549.282 111.039L549.343 110.958L549.241 111.141Z" fill="white"/>
<path d="M479.294 103.498H472.65L472.772 0.202765L476.063 0.182594C476.429 0.182594 512.715 0.000272843 525.25 0.182594C537.968 0.182594 542.661 3.73024 547.192 7.17707C547.436 7.35939 547.68 7.54213 547.923 7.72445C552.535 3.66934 556.598 0.162021 570.901 0.162021H623.501L623.48 103.112H616.837L616.858 6.79144H570.901C559.016 6.79144 556.334 9.16367 552.25 12.7521C551.824 13.1171 551.397 13.5019 550.95 13.8872C549.366 15.2256 546.826 15.063 545.424 14.0695C544.652 13.5221 543.921 12.9545 543.189 12.4273C539.025 9.2645 535.733 6.77127 525.209 6.77127C514.929 6.6087 488.68 6.71076 479.395 6.75068L479.294 103.498Z" fill="white"/>
<path d="M479.394 103.599H472.547V103.498L472.669 0.101203L476.062 0.0810317C476.427 0.0810317 512.733 -0.10129 525.248 0.0810317C537.987 0.0810317 542.7 3.64927 547.251 7.09567C547.475 7.25824 547.698 7.44056 547.922 7.6023C552.514 3.54719 556.536 0.0810317 570.9 0.0810317H623.601V0.182277L623.581 103.234H616.734V103.133L616.754 6.91336H570.899C559.055 6.91336 556.373 9.28559 552.31 12.8538L552.229 12.9143C551.823 13.2592 551.416 13.6243 550.989 13.9889C549.384 15.3676 546.764 15.2051 545.342 14.1712C544.529 13.6033 543.777 13.0152 543.107 12.5291C538.962 9.38642 535.671 6.89319 525.188 6.89319C515.232 6.75079 489.979 6.83228 479.475 6.87261L479.394 103.599ZM472.75 103.396H479.19L479.312 6.68988H479.413C489.856 6.64913 515.232 6.54789 525.227 6.71045C535.792 6.71045 539.083 9.2041 543.269 12.3871C543.939 12.8937 544.691 13.4613 545.483 14.0288C546.844 15.0022 549.343 15.1643 550.887 13.8469C551.314 13.4819 551.721 13.1172 552.127 12.7723L552.208 12.7118C556.312 9.10285 559.014 6.71087 570.94 6.71087H616.998V6.81211L616.977 103.031H623.417L623.438 0.283936H570.94C556.596 0.283936 552.634 3.77109 548.043 7.80562L547.982 7.86612L547.921 7.82536C547.678 7.64304 547.434 7.46031 547.19 7.27799C542.659 3.85175 537.987 0.304094 525.309 0.304094C512.794 0.121773 476.468 0.304094 476.123 0.304094L472.933 0.324266L472.75 103.396Z" fill="white"/>
<path d="M36.8744 42.4526C26.838 35.9849 11.7224 42.0064 11.7224 55.8534C11.7224 70.3494 27.7317 76.1676 37.4634 68.8089L44.1068 76.3911C39.4542 80.2231 33.4814 82.5744 27 82.5744C12.2503 82.5744 0.222656 70.5724 0.222656 55.8534C0.222656 41.1347 12.2503 29.1328 27 29.1328C33.1964 29.1328 38.9461 31.2614 43.5174 34.8095L36.8744 42.4526Z" fill="white"/>
<path d="M26.9803 82.7771C12.1085 82.7771 0 70.694 0 55.8532C0 41.0127 12.1085 28.9297 26.9803 28.9297C32.9535 28.9297 38.8657 30.957 43.6198 34.6471L43.7823 34.7689L36.9153 42.7161L36.773 42.6149C31.8156 39.4117 25.213 39.2092 19.9509 42.0675C14.8718 44.8246 11.946 49.8526 11.946 55.8334C11.946 62.1792 15.0545 67.369 20.4994 70.0656C25.9847 72.7823 32.6079 72.2148 37.362 68.6264L37.5043 68.5045L44.412 76.3909L44.2491 76.5329C39.3532 80.5472 33.2175 82.7771 26.9803 82.7771ZM26.9803 29.3355C12.332 29.3355 0.406243 41.2362 0.406243 55.8536C0.406243 70.4714 12.332 82.3721 26.9803 82.3721C33.055 82.3721 39.0282 80.2431 43.8025 76.3711L37.423 69.0725C32.5675 72.6613 25.8424 73.1881 20.2758 70.431C14.7093 67.674 11.4989 62.3418 11.4989 55.8338C11.4989 49.6909 14.4853 44.5414 19.7273 41.7029C25.0708 38.8038 31.755 38.9862 36.8134 42.1692L43.1929 34.8101C38.5407 31.2813 32.791 29.3355 26.9803 29.3355Z" fill="white"/>
<path d="M82.4434 81.5413V78.6015L110.988 39.5946H87.0956V29.9443H129.415V32.9652L100.809 71.9721H127.79V81.5413H82.4434V81.5413Z" fill="white"/>
<path d="M127.992 81.7431H82.2383V78.5399L82.2791 78.4795L110.58 39.7973H86.8909V29.7412H129.617V33.0255L129.576 33.086L101.194 71.7681H127.992V81.7431V81.7431ZM82.6445 81.3373H127.585V72.1735H100.402L100.645 71.8492L129.211 32.9032V30.1462H87.2971V39.3911H111.393L82.6445 78.6614V81.3373V81.3373Z" fill="white"/>
<path d="M213.258 29.9434L196.456 62.6246V81.5403H186.135V62.6246L169.232 29.9434H180.67L191.296 49.3657L201.84 29.9434H213.258Z" fill="white"/>
<path d="M196.663 81.7426H185.935V62.6853L168.91 29.7402H180.795L191.299 48.9391L201.721 29.7402H213.606L196.663 62.6647V81.7426V81.7426ZM186.321 81.3368H196.256V62.584L212.936 30.1658H201.965L191.299 49.8108L180.551 30.1456H169.58L186.341 62.5634V81.3368H186.321V81.3368Z" fill="white"/>
<path d="M292.477 29.9434V40.2423H278.174V81.5197H267.853V40.2427H253.469V29.9438H292.477V29.9434Z" fill="white"/>
<path d="M278.357 81.7426H267.63V40.4449H253.246V29.7402H292.66V40.4449H278.357V81.7426H278.357ZM268.037 81.3368H277.951V40.0395H292.254V30.146H253.653V40.0395H268.037V81.3368V81.3368Z" fill="white"/>
<path d="M361.633 71.9721H340.24L335.363 81.5413H323.783L350.134 29.9443H353.161L377.582 81.5413H366.144L361.633 71.9721ZM356.777 61.6728L351.393 50.1976L345.562 61.6728H356.777Z" fill="white"/>
<path d="M377.888 81.7431H366.003L361.513 72.1739H340.384L335.508 81.7431H323.48L323.623 81.4394L350.014 29.7412H353.285L353.346 29.863L377.888 81.7431ZM366.267 81.3373H377.238L353.041 30.1462H350.258L324.13 81.3373H335.244L340.12 71.7681H361.757L366.267 81.3373ZM357.104 61.8746H345.239L351.395 49.7307L357.104 61.8746ZM345.889 61.4692H356.454L351.375 50.6633L345.889 61.4692Z" fill="white"/>
<path d="M441.724 29.9434V64.5305H441.643V64.6116C441.643 73.9577 434.044 81.5403 424.759 81.5403C415.393 81.5403 407.795 73.9577 407.795 64.6116V64.5305H418.116V64.6116C418.116 66.3751 418.786 67.9975 420.025 69.254C421.285 70.5113 422.971 71.241 424.739 71.241C426.506 71.241 428.132 70.5113 429.391 69.254C430.651 67.9971 431.301 66.3751 431.301 64.6116V64.5305H431.524V39.2899H420.614L420.838 29.9434H441.724Z" fill="white"/>
<path d="M424.779 81.7431C415.311 81.7431 407.611 74.0593 407.611 64.6119V64.3283H418.339V64.6119C418.339 66.3351 418.989 67.8962 420.187 69.1127C421.406 70.3293 423.092 71.0389 424.758 71.0389C426.424 71.0389 428.009 70.3495 429.269 69.1127C430.488 67.8966 431.117 66.3351 431.117 64.6119V64.3283H431.341V39.4927H420.411L420.634 29.7412H441.906V64.7338H441.824C441.784 74.1202 434.145 81.7431 424.779 81.7431ZM408.018 64.7338C408.078 73.8976 415.575 81.3378 424.779 81.3378C433.982 81.3378 441.459 73.8362 441.459 64.6119V64.3283H441.54V30.1466H421.061L420.857 39.0873H431.767V64.7338H431.544C431.503 66.5175 430.833 68.1196 429.574 69.3761C428.253 70.694 426.546 71.4241 424.779 71.4241C422.991 71.4241 421.223 70.6738 419.923 69.3761C418.664 68.1188 417.973 66.5175 417.953 64.7338H408.018V64.7338Z" fill="white"/>
<path d="M518.685 64.2266V81.7233H506.82V30.6943H526.345C532.419 30.6943 537.214 32.2348 540.79 35.3166C544.345 38.3979 546.133 42.453 546.133 47.4807C546.133 52.5087 544.345 56.5634 540.79 59.625C537.234 62.7063 532.419 64.2271 526.345 64.2271H518.685V64.2266ZM518.685 55.1242H526.345C528.925 55.1242 530.895 54.4142 532.236 52.9952C533.598 51.5761 534.268 49.7718 534.268 47.5416C534.268 45.2706 533.598 43.426 532.257 41.9662C530.916 40.5269 528.945 39.7968 526.345 39.7968H518.685V55.1242Z" fill="white"/>
<path d="M518.89 81.9266H506.619V30.4922H526.346C532.441 30.4922 537.338 32.0738 540.913 35.1758C544.509 38.2773 546.318 42.4336 546.318 47.502C546.318 52.5704 544.489 56.7061 540.913 59.8081C537.337 62.8894 532.421 64.4711 526.346 64.4711H518.89V81.9266V81.9266ZM507.026 81.5212H518.484V64.0249H526.346C532.339 64.0249 537.155 62.484 540.649 59.4632C544.144 56.4423 545.911 52.4078 545.911 47.4613C545.911 42.5147 544.144 38.4802 540.649 35.4593C537.135 32.4179 532.34 30.8774 526.346 30.8774H507.025L507.026 81.5212ZM526.346 55.3274H518.484V39.5947H526.346C528.987 39.5947 531.04 40.345 532.421 41.8249C533.803 43.3049 534.493 45.2306 534.493 47.5423C534.493 49.8129 533.782 51.6781 532.401 53.1379C530.999 54.5977 528.967 55.3274 526.346 55.3274ZM518.89 54.922H526.346C528.845 54.922 530.796 54.2327 532.096 52.8543C533.416 51.4756 534.087 49.6915 534.087 47.5427C534.087 45.3331 533.416 43.5082 532.116 42.1093C530.816 40.7104 528.866 40.0009 526.346 40.0009H518.89V54.922Z" fill="white"/>
<path d="M571.754 72.6204H593.716V81.7435H559.889V30.6943H571.754V72.6204Z" fill="white"/>
<path d="M593.921 81.9256H559.688V30.4912H571.958V72.4173H593.921V81.9256ZM560.094 81.5202H593.515V72.8025H571.552V30.8966H560.094V81.5202Z" fill="white"/>
</svg>
