<svg width="356" height="31" viewBox="0 0 356 31" fill="none" xmlns="http://www.w3.org/2000/svg">
<path d="M334.111 0.65332H347.463V5.81962H340.211V9.74102H347.058V14.9073H340.211V18.9532H347.463V24.1195C346.591 24.1195 345.907 24.2129 345.409 24.3996C344.911 24.5863 344.527 24.8146 344.257 25.0843C344.008 25.354 343.842 25.6238 343.759 25.8935C343.697 26.1632 343.666 26.3707 343.666 26.5159C343.666 26.9309 343.801 27.2629 344.07 27.5118C344.34 27.7608 344.662 27.8853 345.035 27.8853C345.492 27.8853 346.083 27.6674 346.809 27.2317L346.062 30.2817C345.71 30.4892 345.326 30.6448 344.911 30.7486C344.496 30.8523 344.081 30.9042 343.666 30.9042C342.711 30.9042 341.933 30.6344 341.332 30.095C340.73 29.5555 340.429 28.8605 340.429 28.0098C340.429 27.3044 340.647 26.6197 341.083 25.9557C341.539 25.2918 342.214 24.6797 343.106 24.1195H334.111V0.65332Z" fill="black"/>
<path d="M316.838 18.9532H318.239C319.297 18.9532 320.241 18.7872 321.071 18.4553C321.901 18.1233 322.596 17.6668 323.156 17.0859C323.737 16.5049 324.173 15.8202 324.463 15.0318C324.774 14.2226 324.93 13.3408 324.93 12.3864C324.93 11.4527 324.774 10.5813 324.463 9.77214C324.152 8.96297 323.706 8.2679 323.125 7.68695C322.565 7.106 321.87 6.64954 321.04 6.31757C320.21 5.9856 319.276 5.81962 318.239 5.81962H316.838V18.9532ZM310.738 0.65332H319.764C321.361 0.65332 322.855 0.974917 324.245 1.61811C325.656 2.2613 326.88 3.12235 327.918 4.20126C328.976 5.25941 329.806 6.50431 330.408 7.93593C331.009 9.34681 331.31 10.8303 331.31 12.3864C331.31 13.9218 331.009 15.4053 330.408 16.8369C329.827 18.2478 329.007 19.4927 327.949 20.5716C326.911 21.6505 325.687 22.5115 324.276 23.1547C322.886 23.7979 321.382 24.1195 319.764 24.1195H310.738V0.65332Z" fill="black"/>
<path d="M274.222 10.9862H286.329C286.329 12.2311 286.277 13.3618 286.173 14.3785C286.069 15.3951 285.862 16.3392 285.551 17.2106C285.115 18.4348 284.524 19.524 283.777 20.4785C283.03 21.4121 282.148 22.2006 281.131 22.8437C280.135 23.4662 279.036 23.9434 277.832 24.2754C276.629 24.6073 275.363 24.7733 274.035 24.7733C272.21 24.7733 270.539 24.4725 269.025 23.8708C267.531 23.2691 266.245 22.4288 265.166 21.3499C264.087 20.2502 263.246 18.9431 262.645 17.4285C262.043 15.8931 261.742 14.2021 261.742 12.3555C261.742 10.5297 262.033 8.85947 262.614 7.34486C263.215 5.80949 264.056 4.50236 265.135 3.42345C266.234 2.34455 267.552 1.50424 269.087 0.902546C270.622 0.300849 272.334 0 274.222 0C276.671 0 278.818 0.529079 280.665 1.58724C282.511 2.64539 283.974 4.2845 285.053 6.50455L279.264 8.90097C278.725 7.61458 278.019 6.69129 277.148 6.13109C276.297 5.57089 275.322 5.29079 274.222 5.29079C273.309 5.29079 272.479 5.46715 271.732 5.81987C270.985 6.15184 270.342 6.63942 269.803 7.28261C269.284 7.90506 268.869 8.66237 268.558 9.55454C268.267 10.4467 268.122 11.4426 268.122 12.5423C268.122 13.5382 268.247 14.4615 268.496 15.3122C268.765 16.1628 269.16 16.8994 269.678 17.5218C270.197 18.1443 270.84 18.6319 271.608 18.9846C272.376 19.3166 273.268 19.4825 274.284 19.4825C274.886 19.4825 275.467 19.4203 276.027 19.2958C276.588 19.1506 277.085 18.9327 277.521 18.6422C277.978 18.331 278.351 17.9368 278.642 17.4596C278.932 16.9824 279.129 16.4014 279.233 15.7167H274.222V10.9862Z" fill="black"/>
<path d="M226.085 18.9532H235.92V24.1195H215.846L226.956 5.81962H217.713V0.65332H237.133L226.085 18.9532Z" fill="black"/>
<path d="M155.41 0.65332V16.9303C155.41 17.615 155.369 18.2478 155.286 18.8287C155.223 19.4097 155.109 19.9076 154.943 20.3226C154.674 20.9865 154.3 21.5986 153.823 22.1588C153.367 22.6983 152.827 23.1651 152.205 23.5593C151.582 23.9328 150.887 24.2233 150.119 24.4307C149.372 24.659 148.584 24.7731 147.754 24.7731C145.244 24.7731 143.2 23.6216 141.623 21.3185L145.607 17.2415C145.71 17.9469 145.939 18.5071 146.291 18.9221C146.644 19.3371 147.08 19.5445 147.599 19.5445C148.74 19.5445 149.31 18.642 149.31 16.8369V0.65332H155.41Z" fill="black"/>
<path d="M130.739 15.4053L128 7.59359L125.262 15.4053H130.739ZM132.358 20.0425H123.643L122.243 24.1195H115.738L124.67 0.65332H131.331L140.263 24.1195H133.758L132.358 20.0425Z" fill="black"/>
<path d="M110.415 5.81962V24.1195H104.315V5.81962H99.3047V0.65332H115.426V5.81962H110.415Z" fill="black"/>
<path d="M82.2344 12.8533L73.6758 0.65332H80.9584L85.3155 7.06451L89.6415 0.65332H96.9241L88.3344 12.8533V24.1195H82.2344V12.8533Z" fill="black"/>
<path d="M61.667 18.9532H71.5016V24.1195H51.4277L62.5384 5.81962H53.2951V0.65332H72.7154L61.667 18.9532Z" fill="black"/>
<path d="M48.6255 8.49638C47.2146 6.77428 45.4718 5.91323 43.397 5.91323C42.4841 5.91323 41.6334 6.07922 40.8449 6.41119C40.0773 6.74316 39.4133 7.19962 38.8531 7.78057C38.2929 8.34077 37.8468 9.01508 37.5149 9.80352C37.2036 10.5919 37.048 11.4426 37.048 12.3555C37.048 13.2892 37.2036 14.1503 37.5149 14.9387C37.8468 15.7271 38.2929 16.4118 38.8531 16.9928C39.4341 17.5737 40.1084 18.0302 40.8761 18.3621C41.6438 18.6941 42.4737 18.8601 43.3659 18.8601C45.3162 18.8601 47.0694 18.0302 48.6255 16.3703V23.5907L48.0031 23.8085C47.0694 24.1405 46.198 24.3791 45.3888 24.5243C44.5796 24.6903 43.7808 24.7733 42.9924 24.7733C41.374 24.7733 39.8179 24.4725 38.324 23.8708C36.8509 23.2483 35.5438 22.3873 34.4026 21.2876C33.2822 20.1672 32.3797 18.8497 31.695 17.3351C31.0103 15.7997 30.668 14.1295 30.668 12.3244C30.668 10.5193 30.9999 8.86985 31.6639 7.37598C32.3486 5.86136 33.2511 4.5646 34.3715 3.48569C35.5127 2.38604 36.8302 1.53537 38.324 0.933668C39.8179 0.311223 41.3844 0 43.0235 0C43.9572 0 44.8701 0.103741 45.7623 0.311222C46.6752 0.497956 47.6296 0.798805 48.6255 1.21377V8.49638Z" fill="black"/>
<path d="M173.047 24.1196V3.76287H176.229V0.65332H187.221V3.76287H190.439V14.8271H187.221V17.9366H177.639V24.1196H173.047ZM177.639 12.983H185.81V5.6069H177.639V12.983Z" fill="black"/>
<path d="M194.236 24.1199V3.19617H197.507V0H208.805V3.19617H212.113V14.5686H208.805V17.7647H207.207V19.0655H210.44V24.1199H205.757V20.9609H202.413V17.7647H198.956V24.1199H194.236ZM198.956 12.6732H207.355V5.09157H198.956V12.6732Z" fill="black"/>
<path d="M3.46662 25.5663V22.2179H0V0H5.00296V20.2088H6.93324V13.4332H10.4393V3.38783H15.4422V13.4332H18.9482V20.2088H20.9179V0H25.8815V22.2179H22.4542V25.5663H17.4119V22.2179H13.9059V15.4422H11.9756V22.2179H8.46958V25.5663H3.46662Z" fill="black"/>
<path d="M292.401 24.1199V20.9609H289.131V3.19617H292.401V0H303.699V3.19617H307.007V20.9609H303.699V24.1199H292.401ZM293.851 19.0655H302.25V5.09157H293.851V19.0655Z" fill="black"/>
<rect x="350.264" y="0.65332" width="4.77312" height="14.8411" fill="black"/>
<rect x="350.264" y="19.1416" width="4.77312" height="4.97823" fill="black"/>
<path d="M247.168 24.1197V11.7538H243.987V8.68035H240.805V0.65332H245.397V6.8363H248.579V9.94588H250.387V6.8363H253.568V0.65332H258.197V8.68035H254.979V11.7538H251.797V24.1197H247.168Z" fill="black"/>
</svg>
